# xmcd CD database file
#
# Track frame offsets:
#	150
#	14310
#	25564
#	36949
#	47644
#	64955
#	81562
#	96513
#	106743
#	124250
#	138903
#	154819
#
# Disc length: 2125 seconds
#
# Revision: 0
# Processed by: cddbd v1.4PL0 Copyright (c) Steve Scherf et al.
# Submitted via: CDex 1.50
#
DISCID=9d084b0c
DTITLE=Rachel Loshak - Firefly
DYEAR=2001
DGENRE=Jazz
TTITLE0=Rita
TTITLE1=China Doll
TTITLE2=Everythings Heavenly
TTITLE3=Something Inside
TTITLE4=Fire
TTITLE5=O.K.
TTITLE6=Don't Want
TTITLE7=Won't You Love Me
TTITLE8=Muddy Road
TTITLE9=Still Want You
TTITLE10=Beautiful Night
TTITLE11=Bonus Track
EXTD=YEAR: 2001
EXTT0=
EXTT1=
EXTT2=
EXTT3=
EXTT4=
EXTT5=
EXTT6=
EXTT7=
EXTT8=
EXTT9=
EXTT10=
EXTT11=
PLAYORDER=
